<?xml version="1.0" encoding="UTF-8" standalone="no"?>
<svg
   xmlns:dc="http://purl.org/dc/elements/1.1/"
   xmlns:cc="http://creativecommons.org/ns#"
   xmlns:rdf="http://www.w3.org/1999/02/22-rdf-syntax-ns#"
   xmlns:svg="http://www.w3.org/2000/svg"
   xmlns="http://www.w3.org/2000/svg"
   xml:space="preserve"
   enable-background="new 0 0 1639 350"
   viewBox="0 0 1639 350"
   height="350"
   width="1639"
   y="0px"
   x="0px"
   id="Слой_1"
   version="1.1"><metadata
   id="metadata43"><rdf:RDF><cc:Work
       rdf:about=""><dc:format>image/svg+xml</dc:format><dc:type
         rdf:resource="http://purl.org/dc/dcmitype/StillImage" /><dc:title></dc:title></cc:Work></rdf:RDF></metadata><defs
   id="defs41" />
<g
   id="g36">
	<path
   style="fill:#f25022"
   id="path2"
   d="m 0,0 h 166.5 c -0.01,55.5 0,111 -0.01,166.5 -55.49,0 -110.99,0 -166.49,0 z" />
	<path
   style="fill:#fefefe"
   id="path4"
   d="m 166.5,0 h 17 c 0,55.5 -0.01,111 0.01,166.5 55.49,0 110.99,-0.01 166.48,0 C 350.01,111 350,55.5 350,0 h 1289 v 129.49 c -11.88,0.04 -23.76,-0.09 -35.63,0.08 -0.27,-15.03 -0.03,-30.06 -0.13,-45.08 -11.88,3.58 -23.69,7.39 -35.63,10.79 -0.29,11.4 -0.02,22.81 -0.15,34.21 -17.56,-0.01 -35.12,0.02 -52.68,-0.02 0.22,-8.98 -0.62,-18.03 0.67,-26.96 1.07,-7.04 5.15,-14.08 12.01,-16.8 8.65,-3.55 18.32,-1.19 26.54,2.43 -0.05,-10.29 0.08,-20.58 -0.07,-30.86 -17.3,-4.76 -37.13,-3.83 -52.48,6.16 -9.9,6.34 -17.08,16.48 -20.31,27.72 -3.82,12.45 -1.87,25.6 -2.48,38.38 -8.33,-0.06 -16.65,-0.14 -24.96,0.05 0.09,9.62 0.05,19.24 0.02,28.85 8.35,0.17 16.71,-0.03 25.06,0.13 -0.07,40.48 -0.02,80.95 -0.02,121.43 12,0 24.01,0 36.01,0 0,-40.49 -0.01,-80.98 0.01,-121.47 17.56,-0.03 35.13,-0.02 52.7,-0.01 0.05,25.81 -0.05,51.61 0.04,77.41 0.16,12.02 2.21,24.87 10.17,34.36 6.89,8.4 17.83,12.24 28.39,13.02 11.13,0.79 22.63,-0.57 32.92,-5.04 V 350 H 350 c 0,-55.5 0,-111 0,-166.5 -55.5,0 -111,-0.01 -166.49,0.01 -0.02,55.49 0,110.99 -0.01,166.49 h -17 c 0,-55.5 0.01,-110.99 0,-166.49 -55.5,-0.03 -111,0 -166.5,-0.02 V 166.5 c 55.5,0 111,0 166.49,0 0.01,-55.5 0,-111 0.01,-166.5 z" />
	<path
   style="fill:#80ba01"
   id="path6"
   d="M 183.5,0 H 350 c 0,55.5 0.01,111 -0.01,166.5 -55.49,-0.01 -110.99,0 -166.48,0 C 183.49,111 183.5,55.5 183.5,0 Z" />
	<path
   style="fill:#777777"
   id="path8"
   d="m 1501.45,63.44 c 15.35,-9.99 35.18,-10.92 52.48,-6.16 0.15,10.28 0.02,20.57 0.07,30.86 -8.22,-3.62 -17.89,-5.98 -26.54,-2.43 -6.86,2.72 -10.94,9.76 -12.01,16.8 -1.29,8.93 -0.45,17.98 -0.67,26.96 17.56,0.04 35.12,0.01 52.68,0.02 0.13,-11.4 -0.14,-22.81 0.15,-34.21 11.94,-3.4 23.75,-7.21 35.63,-10.79 0.1,15.02 -0.14,30.05 0.13,45.08 11.87,-0.17 23.75,-0.04 35.63,-0.08 v 29.24 c -11.92,-0.49 -23.85,-0.13 -35.77,-0.17 0.05,16.81 0.01,33.62 0.02,50.44 0.19,9.31 -0.5,18.67 0.59,27.95 0.66,5.47 2.65,11.53 7.78,14.36 8.59,4.81 19.49,2.71 27.38,-2.57 v 29.53 c -10.29,4.47 -21.79,5.83 -32.92,5.04 -10.56,-0.78 -21.5,-4.62 -28.39,-13.02 -7.96,-9.49 -10.01,-22.34 -10.17,-34.36 -0.09,-25.8 0.01,-51.6 -0.04,-77.41 -17.57,-0.01 -35.14,-0.02 -52.7,0.01 -0.02,40.49 -0.01,80.98 -0.01,121.47 -12,0 -24.01,0 -36.01,0 0,-40.48 -0.05,-80.95 0.02,-121.43 -8.35,-0.16 -16.71,0.04 -25.06,-0.13 0.03,-9.61 0.07,-19.23 -0.02,-28.85 8.31,-0.19 16.63,-0.11 24.96,-0.05 0.61,-12.78 -1.34,-25.93 2.48,-38.38 3.23,-11.24 10.41,-21.38 20.31,-27.72 z" />
	<path
   style="fill:#777777"
   id="path10"
   d="m 730.47,65.54 c 7.26,-1.1 15.12,1.38 19.93,7.06 5.64,6.22 6.68,16.12 2.5,23.39 -4.62,8.2 -14.96,12.01 -23.97,10.04 -9.35,-1.68 -17.14,-10.37 -16.72,-20.06 -0.27,-10.2 8.26,-19.29 18.26,-20.43 z" />
	<path
   style="fill:#777777"
   id="path12"
   d="m 454.5,70 c 17.46,0 34.91,0 52.37,0 16.3,41.39 32.72,82.74 49.04,124.13 4.17,10.35 8.07,20.82 12.44,31.09 20.97,-51.72 42.24,-103.31 63.05,-155.1 16.79,-0.27 33.59,-0.06 50.39,-0.1 -0.04,69.99 -0.02,139.98 -0.01,209.97 -12.12,-0.03 -24.23,0.1 -36.34,-0.07 0.13,-51.65 -0.01,-103.3 0.06,-154.96 0.02,-2.32 -0.06,-4.64 -0.22,-6.96 -0.71,1.08 -1.34,2.2 -1.89,3.36 -20.81,52.87 -42.02,105.59 -62.71,158.51 -8.62,0.31 -17.25,0.02 -25.88,0.16 -21.47,-52.87 -42.67,-105.86 -64.03,-158.77 -0.56,-1.1 -1.16,-2.17 -1.81,-3.2 -0.44,22.63 -0.07,45.28 -0.19,67.91 0.01,31.34 -0.02,62.68 0.01,94.02 -11.43,0.03 -22.86,0 -34.28,0.01 -0.01,-70 -0.02,-140 0,-210 z" />
	<path
   style="fill:#777777"
   id="path14"
   d="m 829.57,129.35 c 17.38,-4.95 36.12,-4.75 53.49,0.16 3.58,1 7.05,2.39 10.27,4.28 -0.2,11.47 0,22.95 -0.11,34.43 -11.61,-8.87 -26.34,-14.49 -41.1,-12.63 -11.72,1.06 -22.9,7.14 -29.91,16.61 -9.01,11.74 -11.09,27.33 -9.54,41.69 1.16,11.24 5.81,22.47 14.55,29.92 9.08,8.07 21.81,10.93 33.69,10.03 11.74,-1.35 22.82,-6.32 32.31,-13.26 0.1,10.87 -0.05,21.74 0.08,32.61 -14.72,8.76 -32.37,11.02 -49.22,10.19 -17.24,-0.91 -34.43,-7.44 -46.91,-19.56 -13.56,-13.07 -20.92,-31.71 -21.79,-50.38 -0.88,-19.41 3.07,-39.66 14.24,-55.87 9.36,-13.83 24,-23.62 39.95,-28.22 z" />
	<path
   style="fill:#777777"
   id="path16"
   d="m 1073.54,126.76 c 17.28,-2.2 35.51,-1.22 51.55,6.08 13.92,6.28 25.2,17.89 31.45,31.79 6.67,14.8 8.29,31.42 7.16,47.47 -1.11,15.67 -6.03,31.37 -15.83,43.82 -10.03,13.22 -25.15,22.18 -41.34,25.51 -13.84,2.88 -28.32,2.87 -42.16,-0.04 -16.56,-3.54 -31.89,-13.15 -41.6,-27.13 -11.4,-16.2 -14.64,-36.8 -13.19,-56.21 0.98,-16.47 6.1,-33.07 16.62,-45.99 11.52,-14.47 29.19,-23.01 47.34,-25.3 z" />
	<path
   style="fill:#777777"
   id="path18"
   d="m 1222.92,127.06 c 16.65,-2.93 34.08,-0.78 49.84,5.19 0.02,11.04 0,22.07 0.01,33.1 -11.01,-7.57 -24.46,-11.64 -37.82,-11.17 -6.73,0.26 -14.13,3.11 -17.2,9.51 -2.44,6.33 -0.75,14.63 5.22,18.42 10.21,6.83 22.39,9.73 32.97,15.85 8.33,4.68 16.41,10.8 20.63,19.62 7.93,16.52 4.57,38.35 -9.37,50.67 -13.31,12.44 -32.48,15.88 -50.11,15.22 -12.52,-0.81 -25.1,-3.28 -36.61,-8.4 0.05,-11.61 -0.07,-23.21 0.06,-34.81 9.68,7.03 20.85,12.06 32.67,14.1 8.23,1.34 17.18,1.4 24.85,-2.28 7.34,-3.65 8.66,-14.08 4.3,-20.46 -4.08,-4.92 -10.07,-7.63 -15.72,-10.29 -10.61,-4.77 -21.76,-8.76 -31.08,-15.91 -6.55,-5.11 -11.51,-12.31 -13.45,-20.43 -2.88,-11.97 -1.98,-25.46 4.98,-35.92 7.95,-12.19 21.76,-19.5 35.83,-22.01 z" />
	<path
   style="fill:#777777"
   id="path20"
   d="m 1360.55,126.71 c 17.97,-2.23 37.05,-1.02 53.45,7.26 14.3,7.15 25.39,20.07 30.93,35.01 4.33,11.43 5.85,23.77 5.6,35.94 0.03,18.18 -4.88,36.84 -16.29,51.26 -10.68,13.96 -27.02,23.03 -44.27,25.88 -16.87,2.73 -34.69,2.02 -50.72,-4.29 -16.24,-6.39 -29.74,-19.43 -36.58,-35.49 -7.13,-16.37 -7.88,-34.79 -5.66,-52.28 2.33,-17.49 10.25,-34.59 23.75,-46.22 11.06,-9.71 25.3,-15.21 39.79,-17.07 z" />
	<path
   style="fill:#777777"
   id="path22"
   d="m 973.85,131.8 c 9.94,-5.97 22.57,-6.47 33.42,-2.82 -0.05,12.01 0,24.02 -0.03,36.03 -7.1,-4.6 -15.96,-6.57 -24.34,-5.72 -10.22,1.16 -18.32,9.01 -22.52,18.01 -4.56,9.53 -5.42,20.31 -5.13,30.73 0,23.99 0.01,47.98 0,71.97 -11.84,0 -23.67,0 -35.5,0 -0.03,-50.14 0.04,-100.29 -0.03,-150.43 11.85,-0.15 23.7,-0.09 35.55,-0.03 -0.05,8.61 0,17.22 -0.03,25.84 3.85,-9.37 9.58,-18.47 18.61,-23.58 z" />
	<path
   style="fill:#777777"
   id="path24"
   d="m 715.48,129.54 c 11.94,-0.05 23.89,-0.17 35.83,0.06 -0.14,50.13 -0.01,100.27 -0.06,150.4 -11.92,0 -23.84,0 -35.75,0 -0.03,-50.15 0.01,-100.3 -0.02,-150.46 z" />
	<path
   style="fill:#fefefe"
   id="path26"
   d="m 1084.28,155.34 c 10.82,-0.71 22.34,2.35 30.12,10.22 8.32,8.18 11.54,20.05 12.43,31.37 0.64,12.39 0.13,25.3 -5.07,36.78 -3.44,7.74 -9.74,14.28 -17.69,17.38 -9.3,3.57 -19.75,3.78 -29.35,1.29 -9.77,-2.57 -18.06,-9.63 -22.57,-18.62 -5.8,-11.58 -6.67,-24.97 -5.47,-37.67 1.09,-11.55 5.11,-23.43 13.91,-31.4 6.38,-5.96 15.08,-8.87 23.69,-9.35 z" />
	<path
   style="fill:#fefefe"
   id="path28"
   d="m 1370.27,155.37 c 10.17,-0.71 21.03,1.64 28.85,8.51 7.21,5.98 11.2,14.94 13.03,23.96 2.06,10.58 2.04,21.53 0.3,32.16 -1.38,7.92 -4.12,15.82 -9.31,22.09 -5.23,6.3 -13.01,10.14 -21.04,11.32 -8.62,1.29 -17.7,0.67 -25.76,-2.8 -8.7,-3.68 -15.44,-11.21 -18.99,-19.87 -4.27,-10.32 -5.12,-21.75 -4.27,-32.79 0.82,-10.69 3.85,-21.66 10.91,-29.97 6.44,-7.76 16.32,-12.05 26.28,-12.61 z" />
	<path
   style="fill:#fefefe"
   id="path30"
   d="m 1603.23,158.56 c 11.92,0.04 23.85,-0.32 35.77,0.17 v 90.01 c -7.89,5.28 -18.79,7.38 -27.38,2.57 -5.13,-2.83 -7.12,-8.89 -7.78,-14.36 -1.09,-9.28 -0.4,-18.64 -0.59,-27.95 -0.01,-16.82 0.03,-33.63 -0.02,-50.44 z" />
	<path
   style="fill:#02a4ef"
   id="path32"
   d="m 0,183.49 c 55.5,0.02 111,-0.01 166.5,0.02 0.01,55.5 0,110.99 0,166.49 H 0 Z" />
	<path
   style="fill:#ffb902"
   id="path34"
   d="M 183.51,183.51 C 239,183.49 294.5,183.5 350,183.5 c 0,55.5 0,111 0,166.5 H 183.5 c 0.01,-55.5 -0.01,-111 0.01,-166.49 z" />
</g>
</svg>